<svg width="548" height="367" viewBox="0 0 548 367" fill="none" xmlns="http://www.w3.org/2000/svg">
<path d="M531.841 355.428H15.304V356.538H531.841V355.428Z" fill="#3F3D56"/>
<path d="M55.9309 154.022L55.4979 155.045L531.247 355.89L531.68 354.868L55.9309 154.022Z" fill="#3F3D56"/>
<path d="M531.841 153.93H15.304V155.04H531.841V153.93Z" fill="#3F3D56"/>
<path d="M461.783 178.076C461.854 201.565 457.289 224.838 448.346 246.564C439.404 268.291 426.261 288.045 409.668 304.698C407.839 306.535 405.969 308.33 404.058 310.082C401.756 312.203 399.395 314.259 396.974 316.249C396.513 316.632 396.051 317.01 395.584 317.382C386.022 325.118 375.667 331.822 364.692 337.382C364.042 337.709 363.391 338.037 362.735 338.359C361.695 338.869 360.644 339.369 359.593 339.857C320.692 357.929 276.453 360.927 235.463 348.267C163.699 326.03 111.494 258.248 111.494 178.076C111.494 79.8194 189.909 0.169312 286.639 0.169312C383.369 0.169312 461.783 79.8194 461.783 178.076Z" fill="#774DD6"/>
<path d="M325.635 140.755L325.774 140.75L325.225 139.547C324.609 137.844 323.856 136.194 322.974 134.612L306.886 99.347C306.372 98.2214 305.541 97.27 304.493 96.6096C303.446 95.9491 302.228 95.6082 300.99 95.6288L280.615 95.9677C279.298 95.9896 278.02 96.4193 276.957 97.1975C275.895 97.9757 275.101 99.0639 274.685 100.312L261.876 138.718C261.455 139.793 261.089 140.89 260.781 142.003L260.346 143.307L260.448 143.303C259.261 148.368 259.262 153.638 260.45 158.702C261.639 163.766 263.983 168.488 267.299 172.5C270.616 176.511 274.816 179.704 279.572 181.829C284.327 183.953 289.51 184.953 294.716 184.75C299.923 184.546 305.011 183.145 309.586 180.656C314.161 178.166 318.098 174.656 321.09 170.398C324.083 166.14 326.05 161.249 326.838 156.107C327.626 150.966 327.214 145.712 325.635 140.755H325.635Z" fill="#3F3D56"/>
<path d="M287.664 104.592L281.253 139.582L281.976 139.714L288.387 104.724L287.664 104.592Z" fill="#774DD6"/>
<path d="M295.368 104.463L294.65 104.619L302.218 139.378L302.937 139.222L295.368 104.463Z" fill="#774DD6"/>
<path d="M278.395 78.7461L304.502 78.3119C304.697 78.3086 304.886 78.3829 305.026 78.5183C305.166 78.6537 305.247 78.8391 305.25 79.0339C305.253 79.2286 305.179 79.4166 305.043 79.5566C304.907 79.6966 304.722 79.777 304.527 79.7803L278.419 80.2145C278.323 80.2161 278.227 80.1987 278.137 80.1633C278.047 80.1279 277.965 80.0751 277.896 80.0081C277.826 79.941 277.771 79.861 277.732 79.7726C277.694 79.6841 277.673 79.5889 277.671 79.4925C277.67 79.3961 277.687 79.3003 277.723 79.2106C277.758 79.1209 277.811 79.0391 277.878 78.9698C277.945 78.9005 278.026 78.845 278.114 78.8067C278.203 78.7683 278.298 78.7477 278.395 78.7461Z" fill="#3F3D56"/>
<path d="M278.67 84.2495L304.778 83.8153C304.973 83.812 305.161 83.8863 305.301 84.0217C305.442 84.1571 305.522 84.3425 305.525 84.5373C305.529 84.732 305.454 84.92 305.319 85.06C305.183 85.2 304.997 85.2805 304.802 85.2837L278.695 85.7179C278.5 85.7212 278.311 85.6469 278.171 85.5115C278.031 85.3761 277.95 85.1907 277.947 84.9959C277.944 84.8012 278.018 84.6132 278.154 84.4732C278.289 84.3332 278.475 84.2527 278.67 84.2495Z" fill="#3F3D56"/>
<path d="M278.946 89.753L305.054 89.3188C305.249 89.3156 305.437 89.3898 305.577 89.5252C305.717 89.6606 305.798 89.8461 305.801 90.0408C305.805 90.2355 305.73 90.4236 305.595 90.5635C305.459 90.7035 305.273 90.784 305.078 90.7872L278.971 91.2214C278.776 91.2247 278.587 91.1504 278.447 91.0151C278.307 90.8797 278.226 90.6942 278.223 90.4995C278.22 90.3047 278.294 90.1167 278.43 89.9767C278.565 89.8367 278.751 89.7563 278.946 89.753Z" fill="#3F3D56"/>
<path d="M291.361 73.2921C286.182 73.3782 282.032 76.3294 282.092 79.8838L300.845 79.5719C300.786 76.0175 296.54 73.206 291.361 73.2921Z" fill="#3F3D56"/>
<path d="M294.247 144.749C295.27 144.818 296.239 145.232 296.997 145.922C297.19 146.083 297.381 146.251 297.572 146.419C298.177 147.05 298.918 147.534 299.739 147.835C301.536 148.324 303.31 146.906 304.807 145.453L305.32 145.98C303.674 147.577 301.701 149.13 299.545 148.543C298.614 148.216 297.772 147.677 297.085 146.97C296.9 146.806 296.715 146.643 296.527 146.487C295.913 145.978 294.726 145.186 293.67 145.597C293.233 145.81 292.843 146.11 292.525 146.479C292.279 146.737 292.014 146.976 291.73 147.193C291.151 147.604 290.463 147.834 289.753 147.855C289.042 147.876 288.342 147.687 287.739 147.312C287.522 147.168 287.314 147.011 287.114 146.844C286.787 146.52 286.379 146.289 285.933 146.173C285.308 146.086 284.74 146.531 284.138 147.002C283.569 147.554 282.842 147.915 282.057 148.034C282.03 148.036 282.004 148.037 281.977 148.037C280.511 148.061 279.582 146.598 279.007 145.485L279.66 145.149C280.442 146.661 281.195 147.351 282.018 147.301C282.648 147.18 283.228 146.875 283.684 146.424C284.38 145.879 285.101 145.316 286.035 145.446C286.616 145.572 287.15 145.859 287.577 146.273C287.756 146.424 287.942 146.564 288.136 146.694C288.615 146.987 289.169 147.134 289.731 147.117C290.292 147.1 290.836 146.921 291.297 146.6C291.549 146.405 291.786 146.191 292.005 145.96C292.392 145.516 292.868 145.16 293.403 144.913C293.672 144.808 293.958 144.753 294.247 144.749Z" fill="#774DD6"/>
<path d="M292.19 0H291.426V73.2621H292.19V0Z" fill="#3F3D56"/>
<path d="M522.887 126.933C518.226 144.133 502.263 154.785 502.263 154.785C502.263 154.785 493.855 137.551 498.516 120.351C503.177 103.151 519.14 92.4989 519.14 92.4989C519.14 92.4989 527.548 109.733 522.887 126.933Z" fill="#774DD6"/>
<path d="M480.488 126.933C485.149 144.133 501.113 154.785 501.113 154.785C501.113 154.785 509.52 137.551 504.859 120.351C500.199 103.151 484.235 92.4989 484.235 92.4989C484.235 92.4989 475.828 109.733 480.488 126.933Z" fill="#774DD6"/>
<path d="M487.337 123.237C500.126 135.665 501.688 154.771 501.688 154.771C501.688 154.771 482.515 153.726 469.726 141.297C456.938 128.868 455.375 109.763 455.375 109.763C455.375 109.763 474.548 110.808 487.337 123.237Z" fill="#3F3D56"/>
<path d="M516.039 123.237C503.25 135.665 501.688 154.771 501.688 154.771C501.688 154.771 520.86 153.726 533.649 141.297C546.438 128.868 548 109.763 548 109.763C548 109.763 528.827 110.808 516.039 123.237Z" fill="#3F3D56"/>
<path d="M67.5116 327.876C62.851 345.076 46.8873 355.728 46.8873 355.728C46.8873 355.728 38.48 338.494 43.1406 321.294C47.8013 304.094 63.7649 293.442 63.7649 293.442C63.7649 293.442 72.1722 310.676 67.5116 327.876Z" fill="#774DD6"/>
<path d="M25.113 327.876C29.7736 345.076 45.7372 355.728 45.7372 355.728C45.7372 355.728 54.1445 338.494 49.4839 321.294C44.8233 304.094 28.8597 293.442 28.8597 293.442C28.8597 293.442 20.4524 310.676 25.113 327.876Z" fill="#774DD6"/>
<path d="M31.9614 324.179C44.7502 336.608 46.3123 355.714 46.3123 355.714C46.3123 355.714 27.1396 354.669 14.3508 342.24C1.56205 329.812 0 310.706 0 310.706C0 310.706 19.1727 311.751 31.9614 324.179Z" fill="#3F3D56"/>
<path d="M60.6631 324.179C47.8743 336.608 46.3123 355.714 46.3123 355.714C46.3123 355.714 65.4849 354.669 78.2737 342.24C91.0625 329.812 92.6245 310.706 92.6245 310.706C92.6245 310.706 73.4519 311.751 60.6631 324.179Z" fill="#3F3D56"/>
<path d="M372.719 168.983C378.626 168.983 383.414 164.203 383.414 158.306C383.414 152.409 378.626 147.629 372.719 147.629C366.813 147.629 362.025 152.409 362.025 158.306C362.025 164.203 366.813 168.983 372.719 168.983Z" fill="#2F2E41"/>
<path d="M361.261 153.73C361.261 151.097 362.237 148.556 363.999 146.597C365.762 144.638 368.187 143.398 370.81 143.116C369.316 142.953 367.805 143.107 366.375 143.566C364.945 144.025 363.627 144.78 362.509 145.781C361.39 146.782 360.495 148.008 359.883 149.377C359.27 150.747 358.954 152.23 358.954 153.73C358.954 155.23 359.27 156.713 359.883 158.083C360.495 159.452 361.39 160.678 362.509 161.679C363.627 162.68 364.945 163.435 366.375 163.894C367.805 164.354 369.316 164.507 370.81 164.344C368.187 164.062 365.762 162.822 363.999 160.863C362.237 158.904 361.261 156.363 361.261 153.73Z" fill="#2F2E41"/>
<path d="M362.025 158.306C362.025 158.306 360.364 165.932 370.743 168.983L362.025 158.306Z" fill="#774DD6"/>
<path d="M377.143 230.828C396.971 230.828 413.046 214.78 413.046 194.984C413.046 175.188 396.971 159.141 377.143 159.141C357.314 159.141 341.239 175.188 341.239 194.984C341.239 214.78 357.314 230.828 377.143 230.828Z" fill="#2F2E41"/>
<path d="M396.974 316.249C396.513 316.632 396.051 317.01 395.584 317.382C386.022 325.118 375.667 331.822 364.692 337.382C364.042 337.709 363.391 338.037 362.735 338.359C361.695 338.869 360.644 339.369 359.593 339.857L341.189 333.735L341.401 329.333V329.316L342.201 312.53L342.474 306.791L396.974 316.249Z" fill="#A0616A"/>
<path d="M362.735 338.359C361.695 338.869 360.644 339.369 359.593 339.857C352.404 343.213 344.989 346.064 337.403 348.389C337.364 348.278 337.342 348.162 337.336 348.045L341.189 329.244L341.401 329.333L362.735 338.359Z" fill="#2F2E41"/>
<path d="M368.18 233.013C381.312 233.013 391.957 222.385 391.957 209.276C391.957 196.167 381.312 185.539 368.18 185.539C355.049 185.539 344.404 196.167 344.404 209.276C344.404 222.385 355.049 233.013 368.18 233.013Z" fill="#A0616A"/>
<path d="M387.458 210.559C387.458 210.559 391.314 229.805 398.383 234.296L359.184 280.486L344.404 266.372L355.328 247.126C355.328 247.126 367.538 240.07 363.682 230.447L387.458 210.559Z" fill="#A0616A"/>
<path d="M433.977 274.301C427.01 285.289 418.858 295.482 409.668 304.698C409.273 296.094 408.417 289 406.738 286.902C406.734 286.901 406.73 286.899 406.727 286.896L386.171 280.485C386.171 280.485 390.669 238.142 401.595 236.222C401.595 236.222 403.179 236.544 405.643 237.288C413.582 239.674 430.63 246.402 433.082 260.596C433.779 265.13 434.079 269.715 433.977 274.301Z" fill="#A0616A"/>
<path d="M355.328 247.126C355.328 247.126 336.051 246.485 323.841 261.882C311.632 277.278 282.072 288.826 282.072 288.826L208.173 317.695C208.173 317.695 194.679 293.958 186.325 302.298C177.971 310.638 201.747 331.809 212.672 329.243C223.596 326.676 289.783 306.789 289.783 306.789L342.477 283.052L355.328 247.126Z" fill="#A0616A"/>
<path d="M406.738 286.902L404.058 310.082C401.756 312.203 399.395 314.258 396.974 316.249C396.513 316.632 396.051 317.01 395.584 317.382C377.03 311.703 347.956 312.336 342.201 312.53C341.545 312.547 341.189 312.564 341.189 312.564L340.55 299.091C334.384 297.043 332.36 292.564 332.304 287.634C332.21 278.697 338.621 268.295 338.621 268.295C339.772 267.146 348.373 250.865 350.152 247.49C350.358 247.096 350.475 246.88 350.475 246.88L358.187 244.959C358.187 244.959 358.164 245.02 358.12 245.131C357.431 247.057 351.437 264.482 361.756 265.087C371.909 265.686 393.994 237.221 397.035 233.23C397.263 232.93 397.386 232.769 397.386 232.769L405.743 237.26C405.709 237.271 405.676 237.277 405.642 237.288C400.538 238.703 395.812 250.976 395.812 250.976C382.484 274.423 406.143 286.602 406.727 286.896C406.73 286.899 406.734 286.901 406.738 286.902Z" fill="#D0CDE1"/>
<path d="M369.472 181.414C356.815 181.414 346.555 187.389 346.555 194.76C346.555 198.058 348.618 201.072 352.022 203.401L356.434 200.209L355.234 205.209C355.732 205.439 356.24 205.662 356.77 205.868L363.361 198.192V207.622C365.382 207.946 367.425 208.107 369.472 208.106C382.129 208.106 392.389 202.131 392.389 194.76C392.389 187.389 382.129 181.414 369.472 181.414Z" fill="#2F2E41"/>
<path d="M416.416 185.663C422.323 185.663 427.111 180.882 427.111 174.986C427.111 169.089 422.323 164.309 416.416 164.309C410.51 164.309 405.722 169.089 405.722 174.986C405.722 180.882 410.51 185.663 416.416 185.663Z" fill="#2F2E41"/>
<path d="M404.958 170.41C404.958 167.777 405.933 165.236 407.696 163.277C409.458 161.318 411.884 160.078 414.507 159.796C414.126 159.755 413.743 159.734 413.361 159.733C411.907 159.731 410.467 160.025 409.131 160.597C407.795 161.169 406.589 162.007 405.588 163.06C404.587 164.113 403.812 165.359 403.309 166.721C402.807 168.083 402.588 169.533 402.666 170.983C402.744 172.432 403.117 173.851 403.763 175.151C404.409 176.452 405.313 177.608 406.422 178.547C407.53 179.487 408.818 180.191 410.208 180.617C411.599 181.043 413.061 181.181 414.507 181.024C411.884 180.742 409.458 179.502 407.696 177.543C405.933 175.584 404.958 173.043 404.958 170.41Z" fill="#2F2E41"/>
<path d="M405.722 174.986C405.722 174.986 404.061 182.612 414.44 185.662L405.722 174.986Z" fill="#774DD6"/>
<path d="M392.92 211.521C393.946 211.521 394.777 209.654 394.777 207.351C394.777 205.048 393.946 203.181 392.92 203.181C391.895 203.181 391.064 205.048 391.064 207.351C391.064 209.654 391.895 211.521 392.92 211.521Z" fill="#A0616A"/>
<path d="M188.034 223.483L159.856 230.299L159.765 230.321L156.702 233.089L155.82 233.885L153.93 233.543L150.584 232.939L152.916 225.084L153.353 210.1L151.75 200.935L160.639 194.825C160.639 194.825 177.979 193.807 188.034 223.483Z" fill="#D0CDE1"/>
<path opacity="0.1" d="M159.856 230.299C159.475 231.112 160.275 230.575 159.837 231.412L155.757 232.721L153.93 233.543L150.584 232.939L152.916 225.084L153.353 210.1L151.75 200.935L160.639 194.825C160.639 194.825 170.179 208.313 159.856 230.299Z" fill="black"/>
<path d="M221.257 201.953C221.257 201.953 184.245 219.119 169.236 221.738C154.227 224.356 155.539 239.34 155.539 239.34L239.617 226.247C239.617 226.247 236.703 212.718 221.257 201.953Z" fill="#D0CDE1"/>
<path d="M149.856 199.044C149.856 199.044 156.267 214.61 149.127 233.958L157.433 237.74L160.639 233.958L160.712 233.594L151.896 232.794C151.896 232.794 159.182 213.3 153.207 199.771C153.207 199.771 151.896 196.862 149.856 199.044Z" fill="#774DD6"/>
<path d="M272.112 314.405C239.326 307.131 208.798 322.188 208.798 322.188L208.715 322.114L196.558 311.277L149.054 233.885L160.639 233.958C192.842 214.755 238.16 217.374 238.16 217.374C257.686 239.486 272.112 314.405 272.112 314.405Z" fill="#3F3D56"/>
<path opacity="0.1" d="M208.715 322.114L196.558 311.277L149.054 233.885L160.639 233.958C160.639 233.958 206.811 294.837 208.715 322.114Z" fill="black"/>
<path d="M214.051 261.728C223.976 258.689 230.453 251.119 228.518 244.821C226.583 238.522 216.968 235.88 207.043 238.919C197.118 241.958 190.641 249.528 192.576 255.826C194.511 262.125 204.125 264.767 214.051 261.728Z" fill="#D0CDE1"/>
<path d="M15.4535 164.392C21.288 164.392 26.0178 159.67 26.0178 153.845C26.0178 148.02 21.288 143.298 15.4535 143.298C9.619 143.298 4.88922 148.02 4.88922 153.845C4.88922 159.67 9.619 164.392 15.4535 164.392Z" fill="#3F3D56"/>
<path d="M531.434 367C537.269 367 541.999 362.278 541.999 356.453C541.999 350.628 537.269 345.906 531.434 345.906C525.6 345.906 520.87 350.628 520.87 356.453C520.87 362.278 525.6 367 531.434 367Z" fill="#3F3D56"/>
<path d="M61.6027 163.282C66.2088 163.282 69.9429 159.554 69.9429 154.955C69.9429 150.357 66.2088 146.629 61.6027 146.629C56.9965 146.629 53.2625 150.357 53.2625 154.955C53.2625 159.554 56.9965 163.282 61.6027 163.282Z" fill="#774DD6"/>
<path d="M531.434 163.282C536.041 163.282 539.775 159.554 539.775 154.955C539.775 150.357 536.041 146.629 531.434 146.629C526.828 146.629 523.094 150.357 523.094 154.955C523.094 159.554 526.828 163.282 531.434 163.282Z" fill="#774DD6"/>
<path d="M15.4535 363.669C20.0597 363.669 23.7937 359.942 23.7937 355.343C23.7937 350.745 20.0597 347.017 15.4535 347.017C10.8473 347.017 7.11328 350.745 7.11328 355.343C7.11328 359.942 10.8473 363.669 15.4535 363.669Z" fill="#774DD6"/>
</svg>
