<svg width="510" height="307" viewBox="0 0 510 307" fill="none" xmlns="http://www.w3.org/2000/svg">
<path d="M40.896 48.536C43.328 48.92 45.536 49.912 47.52 51.512C49.568 53.112 51.168 55.096 52.32 57.464C53.536 59.832 54.144 62.36 54.144 65.048C54.144 68.44 53.28 71.512 51.552 74.264C49.824 76.952 47.296 79.096 43.968 80.696C40.704 82.232 36.832 83 32.352 83H7.392V16.088H31.392C35.936 16.088 39.808 16.856 43.008 18.392C46.208 19.864 48.608 21.88 50.208 24.44C51.808 27 52.608 29.88 52.608 33.08C52.608 37.048 51.52 40.344 49.344 42.968C47.232 45.528 44.416 47.384 40.896 48.536ZM16.128 44.984H30.816C34.912 44.984 38.08 44.024 40.32 42.104C42.56 40.184 43.68 37.528 43.68 34.136C43.68 30.744 42.56 28.088 40.32 26.168C38.08 24.248 34.848 23.288 30.624 23.288H16.128V44.984ZM31.584 75.8C35.936 75.8 39.328 74.776 41.76 72.728C44.192 70.68 45.408 67.832 45.408 64.184C45.408 60.472 44.128 57.56 41.568 55.448C39.008 53.272 35.584 52.184 31.296 52.184H16.128V75.8H31.584ZM89.211 83.864C84.283 83.864 79.803 82.744 75.771 80.504C71.803 78.264 68.667 75.096 66.363 71C64.123 66.84 63.003 62.04 63.003 56.6C63.003 51.224 64.155 46.488 66.459 42.392C68.827 38.232 72.027 35.064 76.059 32.888C80.091 30.648 84.603 29.528 89.595 29.528C94.587 29.528 99.099 30.648 103.131 32.888C107.163 35.064 110.331 38.2 112.635 42.296C115.003 46.392 116.187 51.16 116.187 56.6C116.187 62.04 114.971 66.84 112.539 71C110.171 75.096 106.939 78.264 102.843 80.504C98.747 82.744 94.203 83.864 89.211 83.864ZM89.211 76.184C92.347 76.184 95.291 75.448 98.043 73.976C100.795 72.504 103.003 70.296 104.667 67.352C106.395 64.408 107.259 60.824 107.259 56.6C107.259 52.376 106.427 48.792 104.763 45.848C103.099 42.904 100.923 40.728 98.235 39.32C95.547 37.848 92.635 37.112 89.499 37.112C86.299 37.112 83.355 37.848 80.667 39.32C78.043 40.728 75.931 42.904 74.331 45.848C72.731 48.792 71.931 52.376 71.931 56.6C71.931 60.888 72.699 64.504 74.235 67.448C75.835 70.392 77.947 72.6 80.571 74.072C83.195 75.48 86.075 76.184 89.211 76.184ZM150.617 83.864C145.689 83.864 141.209 82.744 137.177 80.504C133.209 78.264 130.073 75.096 127.769 71C125.529 66.84 124.409 62.04 124.409 56.6C124.409 51.224 125.561 46.488 127.865 42.392C130.233 38.232 133.433 35.064 137.465 32.888C141.497 30.648 146.009 29.528 151.001 29.528C155.993 29.528 160.505 30.648 164.537 32.888C168.569 35.064 171.737 38.2 174.041 42.296C176.409 46.392 177.593 51.16 177.593 56.6C177.593 62.04 176.377 66.84 173.945 71C171.577 75.096 168.345 78.264 164.249 80.504C160.153 82.744 155.609 83.864 150.617 83.864ZM150.617 76.184C153.753 76.184 156.697 75.448 159.449 73.976C162.201 72.504 164.409 70.296 166.073 67.352C167.801 64.408 168.665 60.824 168.665 56.6C168.665 52.376 167.833 48.792 166.169 45.848C164.505 42.904 162.329 40.728 159.641 39.32C156.953 37.848 154.041 37.112 150.905 37.112C147.705 37.112 144.761 37.848 142.073 39.32C139.449 40.728 137.337 42.904 135.737 45.848C134.137 48.792 133.337 52.376 133.337 56.6C133.337 60.888 134.105 64.504 135.641 67.448C137.241 70.392 139.353 72.6 141.977 74.072C144.601 75.48 147.481 76.184 150.617 76.184ZM218.456 83L197.816 59.768V83H189.08V11.96H197.816V53.72L218.072 30.392H230.264L205.496 56.6L230.36 83H218.456ZM337.597 56.504C337.597 51.128 338.685 46.424 340.861 42.392C343.037 38.296 346.013 35.128 349.789 32.888C353.629 30.648 357.885 29.528 362.557 29.528C367.165 29.528 371.165 30.52 374.557 32.504C377.949 34.488 380.477 36.984 382.141 39.992V30.392H390.973V83H382.141V73.208C380.413 76.28 377.821 78.84 374.365 80.888C370.973 82.872 367.005 83.864 362.461 83.864C357.789 83.864 353.565 82.712 349.789 80.408C346.013 78.104 343.037 74.872 340.861 70.712C338.685 66.552 337.597 61.816 337.597 56.504ZM382.141 56.6C382.141 52.632 381.341 49.176 379.741 46.232C378.141 43.288 375.965 41.048 373.213 39.512C370.525 37.912 367.549 37.112 364.285 37.112C361.021 37.112 358.045 37.88 355.357 39.416C352.669 40.952 350.525 43.192 348.925 46.136C347.325 49.08 346.525 52.536 346.525 56.504C346.525 60.536 347.325 64.056 348.925 67.064C350.525 70.008 352.669 72.28 355.357 73.88C358.045 75.416 361.021 76.184 364.285 76.184C367.549 76.184 370.525 75.416 373.213 73.88C375.965 72.28 378.141 70.008 379.741 67.064C381.341 64.056 382.141 60.568 382.141 56.6ZM414.472 38.936C416.008 35.928 418.184 33.592 421 31.928C423.88 30.264 427.368 29.432 431.464 29.432V38.456H429.16C419.368 38.456 414.472 43.768 414.472 54.392V83H405.736V30.392H414.472V38.936ZM470.924 83L450.284 59.768V83H441.548V11.96H450.284V53.72L470.54 30.392H482.732L457.964 56.6L482.828 83H470.924Z" fill="white"/>
<path fill-rule="evenodd" clip-rule="evenodd" d="M289.419 28.7841L255 0.190763L255.319 114.945C255.333 120.018 256.793 124.879 259.379 128.458C261.965 132.038 265.465 134.043 269.107 134.033L310.314 133.919C313.957 133.909 317.445 131.884 320.011 128.29C322.577 124.696 324.011 119.827 323.997 114.755L323.678 4.56728e-05L289.419 28.7841ZM316.857 16.9072L289.45 39.9344L261.915 17.0597L262.187 114.926C262.194 117.463 262.924 119.893 264.217 121.683C265.51 123.473 267.259 124.475 269.081 124.47L310.288 124.356C312.109 124.351 313.853 123.338 315.136 121.541C316.419 119.744 317.136 117.31 317.129 114.774L316.857 16.9072Z" fill="#774FD1"/>
</svg>
